<svg width="57" height="18" viewBox="0 0 57 18" fill="none" xmlns="http://www.w3.org/2000/svg">
<path d="M35.5042 0.923077L37.4364 0.692308L41.0593 0.230769L44.4407 0H47.822L52.6525 0.461538L57 0.923077L56.7585 3.92308L56.0339 4.15385L55.3093 4.61538L54.8263 5.07692L52.411 4.84615L51.928 3.92308L50.9619 3L50.2373 2.53846L48.7881 2.07692H45.6483L40.8178 2.30769L37.9195 2.53846L35.9873 3L34.5381 3.46154L33.8136 4.15385L33.3305 6L33.089 7.38462V8.76923L33.572 11.0769L34.5381 12.6923L36.2288 14.5385L38.161 15.6923L40.0932 16.1538H42.2669H44.8509L46.3729 15.9231L48.0636 15.4615L49.5127 14.7692L50.7203 13.8462L51.4776 12.4615L51.928 11.0769L52.411 7.38462V4.84615L54.8263 5.07692L54.5847 5.30769L54.3432 5.76923L54.1017 6.92308L53.8602 8.53846L53.3771 10.8462L52.8941 12.4615L52.411 13.8462L51.6864 15.2308L49.7542 16.6154L48.3051 17.3077L46.8559 17.7692L44.1992 18H41.5424L38.8856 17.7692L37.4364 17.3077L35.9873 16.6154L34.7797 15.6923L33.8136 14.7692L32.8475 13.1538L32.1229 11.3077L31.3983 8.76923L30.9153 7.61539L30.4322 6.92308L29.4661 6.23077L28.5 6V2.53846H29.4661L30.9153 2.30769L32.1229 1.84615L35.5042 0.923077Z" fill="#1BDFB0"/>
<path d="M21.4958 0.923077L19.5636 0.692308L15.9407 0.230769L12.5593 0H9.17797L4.34746 0.461538L0 0.923077L0.241525 3.92308L0.966102 4.15385L1.69068 4.61538L2.17373 5.07692L4.58898 4.84615L5.07203 3.92308L6.03813 3L6.76271 2.53846L8.21186 2.07692H11.3517L16.1822 2.30769L19.0805 2.53846L21.0127 3L22.4619 3.46154L23.1864 4.15385L23.6695 6L23.911 7.38462V8.76923L23.428 11.0769L22.4619 12.6923L20.7712 14.5385L18.839 15.6923L16.9068 16.1538H14.7331H12.1491L10.6271 15.9231L8.93644 15.4615L7.48729 14.7692L6.27966 13.8462L5.52236 12.4615L5.07203 11.0769L4.58898 7.38462V4.84615L2.17373 5.07692L2.41525 5.30769L2.65678 5.76923L2.8983 6.92308L3.13983 8.53846L3.62288 10.8462L4.10593 12.4615L4.58898 13.8462L5.31356 15.2308L7.24576 16.6154L8.69491 17.3077L10.1441 17.7692L12.8008 18H15.4576L18.1144 17.7692L19.5636 17.3077L21.0127 16.6154L22.2203 15.6923L23.1864 14.7692L24.1525 13.1538L24.8771 11.3077L25.6017 8.76923L26.0847 7.61539L26.5678 6.92308L27.5339 6.23077L28.5 6V2.53846H27.5339L26.0847 2.30769L24.8771 1.84615L21.4958 0.923077Z" fill="#1BDFB0"/>
<rect x="45.1292" y="9.30328" width="4.67159" height="1.1679" transform="rotate(135 45.1292 9.30328)" fill="#1BDFB0"/>
<rect x="44.3033" y="10.1292" width="4.67159" height="1.1679" transform="rotate(-135 44.3033 10.1292)" fill="#1BDFB0"/>
<rect width="4.67159" height="1.1679" transform="matrix(0.707107 0.707107 0.707107 -0.707107 12 9.30328)" fill="#1BDFB0"/>
<rect width="4.67159" height="1.1679" transform="matrix(0.707107 -0.707107 -0.707107 -0.707107 12.8258 10.1292)" fill="#1BDFB0"/>
</svg>
